<mxfile host="Electron" modified="2024-01-12T10:04:22.298Z" agent="Mozilla/5.0 (Windows NT 10.0; Win64; x64) AppleWebKit/537.36 (KHTML, like Gecko) draw.io/22.0.2 Chrome/114.0.5735.289 Electron/25.8.4 Safari/537.36" etag="Q8jsFcS_Vy8SW0EfigiP" version="22.0.2" type="device">
  <diagram id="ZZHDRWzTiJTUVMh-AHM5" name="Page-2">
    <mxGraphModel dx="1036" dy="606" grid="1" gridSize="10" guides="1" tooltips="1" connect="1" arrows="1" fold="1" page="1" pageScale="1" pageWidth="850" pageHeight="1100" math="0" shadow="0">
      <root>
        <mxCell id="0" />
        <mxCell id="1" parent="0" />
        <mxCell id="FFfJTTMfPy9RhB_EAoxy-2" value="" style="swimlane;startSize=0;" parent="1" vertex="1">
          <mxGeometry x="120" y="180" width="490" height="440" as="geometry" />
        </mxCell>
        <mxCell id="FFfJTTMfPy9RhB_EAoxy-5" value="Update Product List" style="ellipse;whiteSpace=wrap;html=1;" parent="FFfJTTMfPy9RhB_EAoxy-2" vertex="1">
          <mxGeometry x="60" y="30" width="130" height="30" as="geometry" />
        </mxCell>
        <mxCell id="FFfJTTMfPy9RhB_EAoxy-6" value="view the details of products" style="ellipse;whiteSpace=wrap;html=1;" parent="FFfJTTMfPy9RhB_EAoxy-2" vertex="1">
          <mxGeometry x="110" y="150" width="190" height="30" as="geometry" />
        </mxCell>
        <mxCell id="FFfJTTMfPy9RhB_EAoxy-9" value="View Product" style="ellipse;whiteSpace=wrap;html=1;" parent="FFfJTTMfPy9RhB_EAoxy-2" vertex="1">
          <mxGeometry x="305" y="300" width="120" height="50" as="geometry" />
        </mxCell>
        <mxCell id="FFfJTTMfPy9RhB_EAoxy-10" value="Chect availability" style="ellipse;whiteSpace=wrap;html=1;" parent="FFfJTTMfPy9RhB_EAoxy-2" vertex="1">
          <mxGeometry x="80" y="280" width="120" height="50" as="geometry" />
        </mxCell>
        <mxCell id="FFfJTTMfPy9RhB_EAoxy-11" value="chect the cost" style="ellipse;whiteSpace=wrap;html=1;" parent="FFfJTTMfPy9RhB_EAoxy-2" vertex="1">
          <mxGeometry x="80" y="360" width="120" height="40" as="geometry" />
        </mxCell>
        <mxCell id="FFfJTTMfPy9RhB_EAoxy-12" value="Add new Product" style="ellipse;whiteSpace=wrap;html=1;" parent="FFfJTTMfPy9RhB_EAoxy-2" vertex="1">
          <mxGeometry x="305" y="20" width="120" height="35" as="geometry" />
        </mxCell>
        <mxCell id="FFfJTTMfPy9RhB_EAoxy-13" value="Delete product" style="ellipse;whiteSpace=wrap;html=1;" parent="FFfJTTMfPy9RhB_EAoxy-2" vertex="1">
          <mxGeometry x="305" y="70" width="120" height="40" as="geometry" />
        </mxCell>
        <mxCell id="FFfJTTMfPy9RhB_EAoxy-7" value="Save product details" style="ellipse;whiteSpace=wrap;html=1;" parent="FFfJTTMfPy9RhB_EAoxy-2" vertex="1">
          <mxGeometry x="140" y="210" width="160" height="40" as="geometry" />
        </mxCell>
        <mxCell id="FFfJTTMfPy9RhB_EAoxy-15" value="" style="endArrow=open;html=1;rounded=0;exitX=1;exitY=0.5;exitDx=0;exitDy=0;entryX=0;entryY=0.5;entryDx=0;entryDy=0;dashed=1;endFill=0;" parent="FFfJTTMfPy9RhB_EAoxy-2" source="FFfJTTMfPy9RhB_EAoxy-5" target="FFfJTTMfPy9RhB_EAoxy-12" edge="1">
          <mxGeometry width="50" height="50" relative="1" as="geometry">
            <mxPoint x="270" y="210" as="sourcePoint" />
            <mxPoint x="320" y="160" as="targetPoint" />
          </mxGeometry>
        </mxCell>
        <mxCell id="FFfJTTMfPy9RhB_EAoxy-17" value="&amp;lt;&amp;lt;include&amp;gt;&amp;gt;" style="edgeLabel;html=1;align=center;verticalAlign=middle;resizable=0;points=[];" parent="FFfJTTMfPy9RhB_EAoxy-15" vertex="1" connectable="0">
          <mxGeometry x="0.1013" y="-1" relative="1" as="geometry">
            <mxPoint as="offset" />
          </mxGeometry>
        </mxCell>
        <mxCell id="FFfJTTMfPy9RhB_EAoxy-16" value="" style="endArrow=open;html=1;rounded=0;entryX=0;entryY=0.5;entryDx=0;entryDy=0;exitX=0.909;exitY=0.76;exitDx=0;exitDy=0;exitPerimeter=0;dashed=1;endFill=0;" parent="FFfJTTMfPy9RhB_EAoxy-2" source="FFfJTTMfPy9RhB_EAoxy-5" target="FFfJTTMfPy9RhB_EAoxy-13" edge="1">
          <mxGeometry width="50" height="50" relative="1" as="geometry">
            <mxPoint x="270" y="210" as="sourcePoint" />
            <mxPoint x="320" y="160" as="targetPoint" />
          </mxGeometry>
        </mxCell>
        <mxCell id="FFfJTTMfPy9RhB_EAoxy-18" value="&amp;lt;&amp;lt;include&amp;gt;&amp;gt;" style="edgeLabel;html=1;align=center;verticalAlign=middle;resizable=0;points=[];" parent="FFfJTTMfPy9RhB_EAoxy-2" vertex="1" connectable="0">
          <mxGeometry x="250.00152581319213" y="69.9978944531932" as="geometry">
            <mxPoint x="-7" y="2" as="offset" />
          </mxGeometry>
        </mxCell>
        <mxCell id="FFfJTTMfPy9RhB_EAoxy-19" value="" style="endArrow=open;html=1;rounded=0;exitX=0.058;exitY=0.32;exitDx=0;exitDy=0;exitPerimeter=0;dashed=1;endFill=0;" parent="FFfJTTMfPy9RhB_EAoxy-2" source="FFfJTTMfPy9RhB_EAoxy-9" target="FFfJTTMfPy9RhB_EAoxy-10" edge="1">
          <mxGeometry width="50" height="50" relative="1" as="geometry">
            <mxPoint x="190" y="240" as="sourcePoint" />
            <mxPoint x="240" y="190" as="targetPoint" />
          </mxGeometry>
        </mxCell>
        <mxCell id="FFfJTTMfPy9RhB_EAoxy-21" value="&amp;lt;&amp;lt;include&amp;gt;&amp;gt;" style="edgeLabel;html=1;align=center;verticalAlign=middle;resizable=0;points=[];" parent="FFfJTTMfPy9RhB_EAoxy-19" vertex="1" connectable="0">
          <mxGeometry x="0.0927" y="-1" relative="1" as="geometry">
            <mxPoint as="offset" />
          </mxGeometry>
        </mxCell>
        <mxCell id="FFfJTTMfPy9RhB_EAoxy-20" value="" style="endArrow=open;html=1;rounded=0;exitX=0.065;exitY=0.832;exitDx=0;exitDy=0;exitPerimeter=0;entryX=0.928;entryY=0.21;entryDx=0;entryDy=0;entryPerimeter=0;dashed=1;endFill=0;" parent="FFfJTTMfPy9RhB_EAoxy-2" source="FFfJTTMfPy9RhB_EAoxy-9" target="FFfJTTMfPy9RhB_EAoxy-11" edge="1">
          <mxGeometry width="50" height="50" relative="1" as="geometry">
            <mxPoint x="190" y="240" as="sourcePoint" />
            <mxPoint x="240" y="190" as="targetPoint" />
          </mxGeometry>
        </mxCell>
        <mxCell id="FFfJTTMfPy9RhB_EAoxy-3" value="Shopping Manager" style="shape=umlActor;verticalLabelPosition=bottom;verticalAlign=top;html=1;" parent="1" vertex="1">
          <mxGeometry x="50" y="320" width="30" height="60" as="geometry" />
        </mxCell>
        <mxCell id="FFfJTTMfPy9RhB_EAoxy-4" value="User" style="shape=umlActor;verticalLabelPosition=bottom;verticalAlign=top;html=1;" parent="1" vertex="1">
          <mxGeometry x="650" y="350" width="30" height="60" as="geometry" />
        </mxCell>
        <mxCell id="FFfJTTMfPy9RhB_EAoxy-22" value="&amp;lt;&amp;lt;include&amp;gt;&amp;gt;t" style="edgeLabel;html=1;align=center;verticalAlign=middle;resizable=0;points=[];" parent="1" vertex="1" connectable="0">
          <mxGeometry x="380.14936857105215" y="501.05572630664915" as="geometry">
            <mxPoint x="-6" y="32" as="offset" />
          </mxGeometry>
        </mxCell>
        <mxCell id="FFfJTTMfPy9RhB_EAoxy-25" value="" style="endArrow=none;html=1;rounded=0;entryX=0;entryY=1;entryDx=0;entryDy=0;entryPerimeter=0;" parent="1" source="FFfJTTMfPy9RhB_EAoxy-9" target="FFfJTTMfPy9RhB_EAoxy-4" edge="1">
          <mxGeometry width="50" height="50" relative="1" as="geometry">
            <mxPoint x="470" y="420" as="sourcePoint" />
            <mxPoint x="520" y="370" as="targetPoint" />
          </mxGeometry>
        </mxCell>
        <mxCell id="FFfJTTMfPy9RhB_EAoxy-26" value="" style="endArrow=none;html=1;rounded=0;exitX=1;exitY=0.5;exitDx=0;exitDy=0;entryX=0.405;entryY=0.794;entryDx=0;entryDy=0;entryPerimeter=0;" parent="1" source="FFfJTTMfPy9RhB_EAoxy-7" target="FFfJTTMfPy9RhB_EAoxy-4" edge="1">
          <mxGeometry width="50" height="50" relative="1" as="geometry">
            <mxPoint x="370" y="350" as="sourcePoint" />
            <mxPoint x="420" y="300" as="targetPoint" />
          </mxGeometry>
        </mxCell>
        <mxCell id="FFfJTTMfPy9RhB_EAoxy-27" value="" style="endArrow=none;html=1;rounded=0;exitX=1;exitY=0.5;exitDx=0;exitDy=0;" parent="1" source="FFfJTTMfPy9RhB_EAoxy-6" target="FFfJTTMfPy9RhB_EAoxy-4" edge="1">
          <mxGeometry width="50" height="50" relative="1" as="geometry">
            <mxPoint x="360" y="380" as="sourcePoint" />
            <mxPoint x="410" y="330" as="targetPoint" />
          </mxGeometry>
        </mxCell>
        <mxCell id="FFfJTTMfPy9RhB_EAoxy-28" value="" style="endArrow=none;html=1;rounded=0;exitX=0.5;exitY=0.5;exitDx=0;exitDy=0;exitPerimeter=0;entryX=0.405;entryY=1.003;entryDx=0;entryDy=0;entryPerimeter=0;" parent="1" source="FFfJTTMfPy9RhB_EAoxy-3" target="FFfJTTMfPy9RhB_EAoxy-5" edge="1">
          <mxGeometry width="50" height="50" relative="1" as="geometry">
            <mxPoint x="200" y="350" as="sourcePoint" />
            <mxPoint x="250" y="300" as="targetPoint" />
          </mxGeometry>
        </mxCell>
        <mxCell id="FFfJTTMfPy9RhB_EAoxy-29" value="" style="endArrow=none;html=1;rounded=0;entryX=0;entryY=0.5;entryDx=0;entryDy=0;" parent="1" target="FFfJTTMfPy9RhB_EAoxy-6" edge="1">
          <mxGeometry width="50" height="50" relative="1" as="geometry">
            <mxPoint x="70" y="350" as="sourcePoint" />
            <mxPoint x="290" y="380" as="targetPoint" />
          </mxGeometry>
        </mxCell>
        <mxCell id="FFfJTTMfPy9RhB_EAoxy-30" value="" style="endArrow=none;html=1;rounded=0;exitX=0.754;exitY=0.822;exitDx=0;exitDy=0;exitPerimeter=0;entryX=0.067;entryY=0.244;entryDx=0;entryDy=0;entryPerimeter=0;" parent="1" source="FFfJTTMfPy9RhB_EAoxy-3" target="FFfJTTMfPy9RhB_EAoxy-7" edge="1">
          <mxGeometry width="50" height="50" relative="1" as="geometry">
            <mxPoint x="240" y="430" as="sourcePoint" />
            <mxPoint x="290" y="380" as="targetPoint" />
          </mxGeometry>
        </mxCell>
      </root>
    </mxGraphModel>
  </diagram>
</mxfile>
